<?xml version="1.0" encoding="utf-8"?>
<!-- Generator: Adobe Illustrator 18.0.0, SVG Export Plug-In . SVG Version: 6.00 Build 0)  -->
<!DOCTYPE svg PUBLIC "-//W3C//DTD SVG 1.1//EN" "http://www.w3.org/Graphics/SVG/1.1/DTD/svg11.dtd">
<svg version="1.1" id="Layer_1" xmlns="http://www.w3.org/2000/svg" xmlns:xlink="http://www.w3.org/1999/xlink" x="0px" y="0px"
	 viewBox="0 287.5 595.3 266.9" enable-background="new 0 287.5 595.3 266.9" xml:space="preserve">
<g>
	<path d="M122,384.6c-23.6,0-41.1,15.2-41.1,39.5c0,23.9,17.5,40.2,41.1,40.2c23.8,0,41.2-16.3,41.2-40.2
		C163.1,400,145.6,384.6,122,384.6z M122,447.6c-12.7,0-21.6-9.9-21.6-23.5c0-13.2,8.8-23.1,21.6-23.1s21.6,9.9,21.6,23.1
		C143.6,437.9,134.7,447.6,122,447.6z M51.5,436h-0.3L21,386.6H0v75.7h17.8l-0.4-49.4h0.3L48,462.3h20.7v-75.5H51L51.5,436z
		 M381.9,447.5h29.2l5.9,14.8h20.3l-31.4-75.5h-17.8l-31.8,75.5h19.9L381.9,447.5z M396.7,406.9l9.3,25.9h-19L396.7,406.9z
		 M461.5,432.3h6.1l16.3,30h21.4L485.6,430c9.7-2.9,15.7-10.3,15.7-20.4c0-17.4-14.4-22.8-29-22.8h-28.8v75.5h17.9v-30H461.5z
		 M461.4,401.5h9.7c5.5,0,12.1,1.3,12.1,8.4c0,7.7-7.3,9.2-13.2,9.2h-8.7V401.5z M202.6,386.8h-27.4v75.5h28.2
		c20.8,0,42.4-11.5,42.4-38C245.9,395.7,224,386.8,202.6,386.8z M201.7,446.6H193v-44.3h9.1c12.5,0,24.7,5.1,24.7,22
		C226.8,441.2,214.8,446.6,201.7,446.6z M275.5,431.1h31.4v-14.7h-31.4v-14.1h33.2v-15.5h-50.9v75.5h52.7v-15.6h-35.1L275.5,431.1
		L275.5,431.1z M528.4,462.3h18.3v-60.1h21.4v-15.5h-61v15.5h21.4V462.3z"/>
	<path fill="#18B5B5" d="M328.3,287.5v266.9h266.9V287.5H328.3z M581.9,541.1H341.7V300.8h240.2V541.1z"/>
</g>
</svg>
